HIERARCHY
ROOT mixamorig:Hips
{
	OFFSET -0.000008 104.274872 1.554316
	CHANNELS 6 Xposition Yposition Zposition Xrotation Yrotation Zrotation
	JOINT mixamorig:Spine
	{
		OFFSET -0.000005 10.181595 0.131519
		CHANNELS 6 Xposition Yposition Zposition Xrotation Yrotation Zrotation
		JOINT mixamorig:Spine1
		{
			OFFSET -0.000000 9.893959 -1.470707
			CHANNELS 6 Xposition Yposition Zposition Xrotation Yrotation Zrotation
			JOINT mixamorig:Spine2
			{
				OFFSET -0.000000 9.220757 -1.370641
				CHANNELS 6 Xposition Yposition Zposition Xrotation Yrotation Zrotation
				JOINT mixamorig:Neck
				{
					OFFSET 0.000001 16.740417 -2.049036
					CHANNELS 6 Xposition Yposition Zposition Xrotation Yrotation Zrotation
					JOINT mixamorig:Head
					{
						OFFSET 0.000000 9.617874 1.685006
						CHANNELS 6 Xposition Yposition Zposition Xrotation Yrotation Zrotation
						JOINT mixamorig:HeadTop_End
						{
							OFFSET 0.000002 22.037354 7.501101
							CHANNELS 6 Xposition Yposition Zposition Xrotation Yrotation Zrotation
							End Site
							{
								OFFSET 0.000168 2310.654297 -282.823242
							}
						}
					}
				}
				JOINT mixamorig:RightShoulder
				{
					OFFSET -4.569970 11.014908 -2.160885
					CHANNELS 6 Xposition Yposition Zposition Xrotation Yrotation Zrotation
					JOINT mixamorig:RightArm
					{
						OFFSET -10.592851 -0.524811 -2.232101
						CHANNELS 6 Xposition Yposition Zposition Xrotation Yrotation Zrotation
						JOINT mixamorig:RightForeArm
						{
							OFFSET -27.841511 0.000031 -0.000004
							CHANNELS 6 Xposition Yposition Zposition Xrotation Yrotation Zrotation
							JOINT mixamorig:RightHand
							{
								OFFSET -28.328831 -0.000015 0.000015
								CHANNELS 6 Xposition Yposition Zposition Xrotation Yrotation Zrotation
								JOINT mixamorig:RightHandThumb1
								{
									OFFSET -2.464806 -1.573990 2.681852
									CHANNELS 6 Xposition Yposition Zposition Xrotation Yrotation Zrotation
									JOINT mixamorig:RightHandThumb2
									{
										OFFSET -3.215179 -1.872803 1.924282
										CHANNELS 6 Xposition Yposition Zposition Xrotation Yrotation Zrotation
										JOINT mixamorig:RightHandThumb3
										{
											OFFSET -2.654831 -1.527969 1.512609
											CHANNELS 6 Xposition Yposition Zposition Xrotation Yrotation Zrotation
											JOINT mixamorig:RightHandThumb4
											{
												OFFSET -2.018814 -1.152008 1.108052
												CHANNELS 6 Xposition Yposition Zposition Xrotation Yrotation Zrotation
												End Site
												{
													OFFSET -188.809540 -114.533607 132.431396
												}
											}
										}
									}
								}
								JOINT mixamorig:RightHandIndex1
								{
									OFFSET -9.108284 -0.517868 2.259835
									CHANNELS 6 Xposition Yposition Zposition Xrotation Yrotation Zrotation
									JOINT mixamorig:RightHandIndex2
									{
										OFFSET -3.699989 0.000000 0.001215
										CHANNELS 6 Xposition Yposition Zposition Xrotation Yrotation Zrotation
										JOINT mixamorig:RightHandIndex3
										{
											OFFSET -2.850006 0.000031 -0.000522
											CHANNELS 6 Xposition Yposition Zposition Xrotation Yrotation Zrotation
											JOINT mixamorig:RightHandIndex4
											{
												OFFSET -2.772186 -0.000015 -0.000020
												CHANNELS 6 Xposition Yposition Zposition Xrotation Yrotation Zrotation
												End Site
												{
													OFFSET -277.218445 0.000000 -0.050231
												}
											}
										}
									}
								}
								JOINT mixamorig:RightHandMiddle1
								{
									OFFSET -9.532516 -0.000031 -0.000023
									CHANNELS 6 Xposition Yposition Zposition Xrotation Yrotation Zrotation
									JOINT mixamorig:RightHandMiddle2
									{
										OFFSET -3.700005 -0.000015 0.003713
										CHANNELS 6 Xposition Yposition Zposition Xrotation Yrotation Zrotation
										JOINT mixamorig:RightHandMiddle3
										{
											OFFSET -2.949974 0.000015 -0.002054
											CHANNELS 6 Xposition Yposition Zposition Xrotation Yrotation Zrotation
											JOINT mixamorig:RightHandMiddle4
											{
												OFFSET -2.946640 0.000000 -0.000156
												CHANNELS 6 Xposition Yposition Zposition Xrotation Yrotation Zrotation
												End Site
												{
													OFFSET -294.664337 0.000000 -0.113670
												}
											}
										}
									}
								}
								JOINT mixamorig:RightHandRing1
								{
									OFFSET -9.103600 -0.043076 -1.865134
									CHANNELS 6 Xposition Yposition Zposition Xrotation Yrotation Zrotation
									JOINT mixamorig:RightHandRing2
									{
										OFFSET -3.379288 0.000000 -0.001055
										CHANNELS 6 Xposition Yposition Zposition Xrotation Yrotation Zrotation
										JOINT mixamorig:RightHandRing3
										{
											OFFSET -2.889687 -0.000015 0.000379
											CHANNELS 6 Xposition Yposition Zposition Xrotation Yrotation Zrotation
											JOINT mixamorig:RightHandRing4
											{
												OFFSET -2.638809 -0.000015 0.000941
												CHANNELS 6 Xposition Yposition Zposition Xrotation Yrotation Zrotation
												End Site
												{
													OFFSET -263.880371 0.000000 0.516020
												}
											}
										}
									}
								}
								JOINT mixamorig:RightHandPinky1
								{
									OFFSET -8.076683 -0.486710 -3.806280
									CHANNELS 6 Xposition Yposition Zposition Xrotation Yrotation Zrotation
									JOINT mixamorig:RightHandPinky2
									{
										OFFSET -3.600014 -0.000015 -0.003747
										CHANNELS 6 Xposition Yposition Zposition Xrotation Yrotation Zrotation
										JOINT mixamorig:RightHandPinky3
										{
											OFFSET -2.099983 0.000000 -0.005739
											CHANNELS 6 Xposition Yposition Zposition Xrotation Yrotation Zrotation
											JOINT mixamorig:RightHandPinky4
											{
												OFFSET -2.115768 -0.000031 -0.003680
												CHANNELS 6 Xposition Yposition Zposition Xrotation Yrotation Zrotation
												End Site
												{
													OFFSET -211.577087 0.000000 -0.350686
												}
											}
										}
									}
								}
							}
						}
					}
				}
				JOINT mixamorig:LeftShoulder
				{
					OFFSET 4.570447 11.014725 -2.160855
					CHANNELS 6 Xposition Yposition Zposition Xrotation Yrotation Zrotation
					JOINT mixamorig:LeftArm
					{
						OFFSET 10.592371 -0.524597 -2.232119
						CHANNELS 6 Xposition Yposition Zposition Xrotation Yrotation Zrotation
						JOINT mixamorig:LeftForeArm
						{
							OFFSET 27.841532 -0.000031 0.000026
							CHANNELS 6 Xposition Yposition Zposition Xrotation Yrotation Zrotation
							JOINT mixamorig:LeftHand
							{
								OFFSET 28.328846 -0.000061 0.000022
								CHANNELS 6 Xposition Yposition Zposition Xrotation Yrotation Zrotation
								JOINT mixamorig:LeftHandThumb1
								{
									OFFSET 2.466141 -1.576172 2.681732
									CHANNELS 6 Xposition Yposition Zposition Xrotation Yrotation Zrotation
									JOINT mixamorig:LeftHandThumb2
									{
										OFFSET 3.217812 -1.872070 1.916482
										CHANNELS 6 Xposition Yposition Zposition Xrotation Yrotation Zrotation
										JOINT mixamorig:LeftHandThumb3
										{
											OFFSET 2.656029 -1.528778 1.514513
											CHANNELS 6 Xposition Yposition Zposition Xrotation Yrotation Zrotation
											JOINT mixamorig:LeftHandThumb4
											{
												OFFSET 2.020889 -1.154053 1.115139
												CHANNELS 6 Xposition Yposition Zposition Xrotation Yrotation Zrotation
												End Site
												{
													OFFSET 190.885437 -115.081749 130.048782
												}
											}
										}
									}
								}
								JOINT mixamorig:LeftHandIndex1
								{
									OFFSET 9.109314 -0.518021 2.259871
									CHANNELS 6 Xposition Yposition Zposition Xrotation Yrotation Zrotation
									JOINT mixamorig:LeftHandIndex2
									{
										OFFSET 3.699989 0.000000 -0.000322
										CHANNELS 6 Xposition Yposition Zposition Xrotation Yrotation Zrotation
										JOINT mixamorig:LeftHandIndex3
										{
											OFFSET 2.850006 0.000000 0.000352
											CHANNELS 6 Xposition Yposition Zposition Xrotation Yrotation Zrotation
											JOINT mixamorig:LeftHandIndex4
											{
												OFFSET 2.774864 -0.000031 -0.000027
												CHANNELS 6 Xposition Yposition Zposition Xrotation Yrotation Zrotation
												End Site
												{
													OFFSET 277.486267 0.000000 -0.009857
												}
											}
										}
									}
								}
								JOINT mixamorig:LeftHandMiddle1
								{
									OFFSET 9.533394 0.000061 0.000044
									CHANNELS 6 Xposition Yposition Zposition Xrotation Yrotation Zrotation
									JOINT mixamorig:LeftHandMiddle2
									{
										OFFSET 3.699989 -0.000015 -0.000231
										CHANNELS 6 Xposition Yposition Zposition Xrotation Yrotation Zrotation
										JOINT mixamorig:LeftHandMiddle3
										{
											OFFSET 2.949997 -0.000015 -0.000059
											CHANNELS 6 Xposition Yposition Zposition Xrotation Yrotation Zrotation
											JOINT mixamorig:LeftHandMiddle4
											{
												OFFSET 2.952896 0.000031 0.000063
												CHANNELS 6 Xposition Yposition Zposition Xrotation Yrotation Zrotation
												End Site
												{
													OFFSET 295.289337 0.000000 0.022810
												}
											}
										}
									}
								}
								JOINT mixamorig:LeftHandRing1
								{
									OFFSET 9.104523 -0.042999 -1.865074
									CHANNELS 6 Xposition Yposition Zposition Xrotation Yrotation Zrotation
									JOINT mixamorig:LeftHandRing2
									{
										OFFSET 3.150009 -0.000031 0.000043
										CHANNELS 6 Xposition Yposition Zposition Xrotation Yrotation Zrotation
										JOINT mixamorig:LeftHandRing3
										{
											OFFSET 2.949982 -0.000015 0.000040
											CHANNELS 6 Xposition Yposition Zposition Xrotation Yrotation Zrotation
											JOINT mixamorig:LeftHandRing4
											{
												OFFSET 2.644348 0.000000 0.000057
												CHANNELS 6 Xposition Yposition Zposition Xrotation Yrotation Zrotation
												End Site
												{
													OFFSET 264.434631 0.000000 0.012105
												}
											}
										}
									}
								}
								JOINT mixamorig:LeftHandPinky1
								{
									OFFSET 8.077789 -0.486847 -3.806259
									CHANNELS 6 Xposition Yposition Zposition Xrotation Yrotation Zrotation
									JOINT mixamorig:LeftHandPinky2
									{
										OFFSET 3.599953 0.000031 0.014727
										CHANNELS 6 Xposition Yposition Zposition Xrotation Yrotation Zrotation
										JOINT mixamorig:LeftHandPinky3
										{
											OFFSET 2.100021 0.000015 0.007705
											CHANNELS 6 Xposition Yposition Zposition Xrotation Yrotation Zrotation
											JOINT mixamorig:LeftHandPinky4
											{
												OFFSET 2.125504 0.000031 0.007517
												CHANNELS 6 Xposition Yposition Zposition Xrotation Yrotation Zrotation
												End Site
												{
													OFFSET 212.550781 0.000000 0.625752
												}
											}
										}
									}
								}
							}
						}
					}
				}
			}
		}
	}
	JOINT mixamorig:RightUpLeg
	{
		OFFSET -8.207787 -6.751648 -1.599560
		CHANNELS 6 Xposition Yposition Zposition Xrotation Yrotation Zrotation
		JOINT mixamorig:RightLeg
		{
			OFFSET -0.000002 -44.370117 0.345942
			CHANNELS 6 Xposition Yposition Zposition Xrotation Yrotation Zrotation
			JOINT mixamorig:RightFoot
			{
				OFFSET 0.000003 -44.423679 -3.043532
				CHANNELS 6 Xposition Yposition Zposition Xrotation Yrotation Zrotation
				JOINT mixamorig:RightToeBase
				{
					OFFSET -0.000002 -8.728671 10.710558
					CHANNELS 6 Xposition Yposition Zposition Xrotation Yrotation Zrotation
					JOINT mixamorig:RightToe_End
					{
						OFFSET -0.000001 -0.000679 9.278119
						CHANNELS 6 Xposition Yposition Zposition Xrotation Yrotation Zrotation
						End Site
						{
							OFFSET 0.000000 -0.067690 927.812134
						}
					}
				}
			}
		}
	}
	JOINT mixamorig:LeftUpLeg
	{
		OFFSET 8.207793 -6.751686 -1.599556
		CHANNELS 6 Xposition Yposition Zposition Xrotation Yrotation Zrotation
		JOINT mixamorig:LeftLeg
		{
			OFFSET -0.000004 -44.370014 0.346954
			CHANNELS 6 Xposition Yposition Zposition Xrotation Yrotation Zrotation
			JOINT mixamorig:LeftFoot
			{
				OFFSET -0.000001 -44.423672 -3.044401
				CHANNELS 6 Xposition Yposition Zposition Xrotation Yrotation Zrotation
				JOINT mixamorig:LeftToeBase
				{
					OFFSET -0.000002 -8.728669 10.710558
					CHANNELS 6 Xposition Yposition Zposition Xrotation Yrotation Zrotation
					JOINT mixamorig:LeftToe_End
					{
						OFFSET -0.000003 -0.000679 9.278133
						CHANNELS 6 Xposition Yposition Zposition Xrotation Yrotation Zrotation
						End Site
						{
							OFFSET 0.000000 -0.068021 927.813477
						}
					}
				}
			}
		}
	}
}
MOTION
Frames: 3
Frame Time: 0.033333
0.000006 104.270477 1.554256 0.000010 0.000003 -0.000113 -0.000005 10.181587 0.131522 0.000001 -0.000003 0.000084 -0.000000 9.893967 -1.470711 0.000001 0.000000 -0.000000 -0.000000 9.220802 -1.370642 0.000000 -0.000000 -0.000000 0.000001 16.740433 -2.049030 0.000000 -0.000000 -0.000000 0.000000 9.617859 1.685014 0.000000 0.000000 0.000000 0.000002 22.037384 7.501101 0.000000 -0.000000 0.000000 -4.569968 11.014880 -2.160881 0.000008 0.000001 -0.000038 -10.592875 -0.524762 -2.231915 75.443012 27.123147 -21.137168 -27.841526 0.000017 0.000549 -58.084946 107.307026 74.078982 -28.328840 0.000007 0.000020 -0.000322 -0.000045 0.000008 -2.464444 -1.573894 2.682387 -31.900607 -155.711921 24.363058 -3.215282 -1.872559 1.924646 155.030104 32.099355 6.455176 -2.654956 -1.527908 1.513078 150.598827 26.662224 -33.451524 -2.018834 -1.152018 1.108062 -0.000001 -0.000006 -0.000001 -9.108404 -0.517576 2.260162 103.413750 20.429943 -25.773082 -3.700064 0.000298 0.001529 98.514182 15.824824 -18.301950 -2.850095 0.000361 -0.000253 96.862512 12.891454 -14.518324 -2.772170 -0.000014 -0.000019 0.000000 -0.000000 -0.000001 -9.532614 0.000254 0.000251 92.958424 20.266790 -21.472356 -3.700062 0.000319 0.003959 91.746523 13.045422 -13.347072 -2.950052 0.000340 -0.001826 91.711457 12.220075 -12.580356 -2.946620 0.000000 -0.000157 -0.000003 0.000000 -0.000002 -9.103708 -0.042775 -1.864869 91.040841 22.063775 -22.410766 -3.379328 0.000313 -0.000831 87.667828 8.756717 -8.425097 -2.889737 0.000356 0.000607 91.269031 4.419436 -4.563222 -2.638815 -0.000027 0.000939 -0.000000 -0.000001 -0.000004 -8.076748 -0.486391 -3.806018 86.496696 19.375491 -18.100512 -3.600036 0.000281 -0.003533 87.016924 8.236891 -7.483843 -2.100010 0.000326 -0.005510 87.224712 4.761668 -4.330271 -2.115775 -0.000027 -0.003682 -0.000001 0.000002 -0.000004 4.570446 11.014691 -2.160851 -0.000018 0.000010 -0.000021 10.592393 -0.524473 -2.232357 74.097567 -9.790432 7.398532 27.841833 0.000057 -0.000178 101.948660 -72.238191 83.994074 28.328815 -0.000029 0.000023 0.000021 -0.000089 0.000000 2.465866 -1.576087 2.681901 -51.659767 172.425872 21.888624 3.217786 -1.871739 1.916354 152.150469 -30.730107 0.059405 2.656088 -1.528601 1.514435 139.785654 -28.251235 36.313582 2.020887 -1.154066 1.115148 0.000001 0.000006 0.000004 9.109341 -0.517862 2.259725 84.595779 -14.688716 13.366150 3.700056 0.000131 -0.000450 80.563345 -17.856908 15.183613 2.850039 0.000163 0.000202 79.441213 -14.872896 12.377122 2.774872 -0.000015 -0.000026 0.000001 -0.000002 -0.000000 9.533432 0.000227 -0.000091 81.922696 -13.079637 11.359122 3.700057 0.000154 -0.000362 87.019998 -16.599247 15.765801 2.950070 0.000130 -0.000180 84.384692 -21.139111 19.204163 2.952870 -0.000032 0.000062 -0.000001 -0.000000 -0.000002 9.104551 -0.042847 -1.865227 80.251793 -13.088121 11.046823 3.150061 0.000204 -0.000089 91.470836 -14.414503 14.787192 2.950032 0.000166 -0.000077 92.956942 -16.999409 17.887924 2.644336 0.000030 0.000056 -0.000001 0.000001 -0.000001 8.077806 -0.486731 -3.806414 69.837298 -14.810698 10.779767 3.600016 0.000167 0.014563 74.321228 -11.890517 9.410170 2.100051 0.000154 0.007551 78.799524 -12.342724 10.551043 2.125504 -0.000014 0.007512 -0.000001 -0.000001 0.000000 -8.207786 -6.751667 -1.599560 -0.077001 -0.000003 0.000080 -0.000002 -44.370110 0.345938 0.153719 -0.000000 -0.000000 0.000000 -44.423679 -3.043532 -0.076700 0.000000 -0.000002 -0.000006 -8.728667 10.710559 -0.000009 -0.000000 -0.000000 -0.000001 -0.000679 9.278123 0.000000 -0.000000 -0.000000 8.207792 -6.751710 -1.599556 -0.074518 -0.000003 0.000081 -0.000002 -44.370014 0.346960 0.148822 0.000002 0.000000 -0.000001 -44.423664 -3.044403 -0.074314 0.000000 -0.000002 -0.000004 -8.728671 10.710558 0.000007 -0.000000 -0.000000 0.000000 -0.000680 9.278137 -0.000000 0.000000 -0.000001 
0.000006 104.270477 1.554256 0.000010 0.000003 -0.000113 -0.000005 10.181587 0.131522 0.000001 -0.000003 0.000084 -0.000000 9.893967 -1.470711 0.000001 0.000000 -0.000000 -0.000000 9.220802 -1.370642 0.000000 -0.000000 -0.000000 0.000001 16.740433 -2.049030 0.000000 -0.000000 -0.000000 0.000000 9.617859 1.685014 0.000000 0.000000 0.000000 0.000002 22.037384 7.501101 0.000000 -0.000000 0.000000 -4.569968 11.014880 -2.160881 0.000008 0.000001 -0.000038 -10.592864 -0.524790 -2.231869 75.344828 37.934068 -29.723563 -27.841545 0.000017 0.000547 -55.238827 104.804117 68.389325 -28.328815 0.000011 0.000032 -0.000322 -0.000046 0.000008 -2.464391 -1.573839 2.682351 -40.533461 -157.504108 6.562744 -3.215254 -1.872520 1.924608 147.977360 32.869302 22.179641 -2.654977 -1.527866 1.513061 146.326162 28.265988 -23.316915 -2.018837 -1.151996 1.108070 -0.000001 0.000000 -0.000000 -9.108382 -0.517545 2.260138 102.804531 16.105564 -20.159939 -3.700057 0.000313 0.001537 98.638505 12.815623 -14.860663 -2.850093 0.000368 -0.000254 98.218967 10.917759 -12.594274 -2.772157 -0.000015 -0.000018 -0.000001 -0.000002 0.000000 -9.532586 0.000269 0.000217 90.428494 15.946205 -16.207610 -3.700073 0.000312 0.003971 92.598971 11.889375 -12.338321 -2.950075 0.000318 -0.001809 95.172197 12.606533 -13.780349 -2.946638 0.000002 -0.000162 0.000002 -0.000001 -0.000001 -9.103703 -0.042767 -1.864895 89.278974 18.897163 -18.620194 -3.379329 0.000324 -0.000824 90.556533 8.457390 -8.556891 -2.889764 0.000364 0.000651 96.917256 5.713895 -6.498059 -2.638812 -0.000001 0.000943 -0.000003 0.000001 -0.000002 -8.076748 -0.486388 -3.806035 84.198768 17.374615 -15.583734 -3.600046 0.000277 -0.003527 86.818398 7.544505 -6.805782 -2.100005 0.000317 -0.005514 88.721152 4.653637 -4.339528 -2.115777 -0.000028 -0.003679 -0.000002 0.000000 -0.000003 4.570446 11.014691 -2.160851 -0.000018 0.000010 -0.000021 10.592402 -0.524474 -2.232360 73.686430 -13.682717 10.273580 27.841820 0.000052 -0.000185 103.231985 -74.228857 87.378105 28.328815 -0.000029 0.000019 0.000017 -0.000088 0.000000 2.466113 -1.576166 2.681898 -24.359914 158.513418 -41.085835 3.217790 -1.871734 1.916392 160.517751 -31.017095 2.641831 2.656108 -1.528651 1.514470 141.111025 -27.295010 50.271777 2.020880 -1.154052 1.115144 0.000002 -0.000002 0.000001 9.109395 -0.517862 2.259757 87.679248 -18.041127 17.323757 3.700016 0.000165 -0.000474 81.221816 -11.259989 9.677196 2.850033 0.000196 0.000202 80.460475 -9.052722 7.661813 2.774894 -0.000046 -0.000025 -0.000001 -0.000001 0.000000 9.533480 0.000203 -0.000093 86.354307 -16.726889 15.699955 3.700029 0.000189 -0.000386 86.763627 -9.945716 9.399279 2.950058 0.000178 -0.000208 87.696350 -11.917638 11.453854 2.952864 -0.000030 0.000065 0.000000 0.000000 0.000001 9.104600 -0.042845 -1.865235 84.598798 -16.611816 15.135240 3.150059 0.000216 -0.000104 91.783939 -9.708340 10.015705 2.950032 0.000182 -0.000075 94.064969 -10.527369 11.299075 2.644319 0.000031 0.000060 0.000002 -0.000000 -0.000000 8.077848 -0.486731 -3.806419 73.721032 -17.195700 13.385311 3.600004 0.000189 0.014569 77.334994 -13.310415 11.079501 2.100030 0.000170 0.007553 80.526161 -11.400462 10.071842 2.125487 0.000001 0.007512 -0.000000 0.000003 0.000000 -8.207786 -6.751667 -1.599560 -0.077001 -0.000003 0.000080 -0.000002 -44.370110 0.345938 0.153719 -0.000000 -0.000000 0.000000 -44.423679 -3.043532 -0.076700 0.000000 -0.000002 -0.000006 -8.728667 10.710559 -0.000009 -0.000000 -0.000000 -0.000001 -0.000679 9.278123 0.000000 -0.000000 -0.000000 8.207792 -6.751710 -1.599556 -0.074518 -0.000003 0.000081 -0.000002 -44.370014 0.346960 0.148822 0.000002 0.000000 -0.000001 -44.423664 -3.044403 -0.074314 0.000000 -0.000002 -0.000004 -8.728671 10.710558 0.000007 -0.000000 -0.000000 0.000000 -0.000680 9.278137 -0.000000 0.000000 -0.000001 
0.000006 104.270477 1.554256 0.000010 0.000003 -0.000113 -0.000005 10.181587 0.131522 0.000001 -0.000003 0.000084 -0.000000 9.893967 -1.470711 0.000001 0.000000 -0.000000 -0.000000 9.220802 -1.370642 0.000000 -0.000000 -0.000000 0.000001 16.740433 -2.049030 0.000000 -0.000000 -0.000000 0.000000 9.617859 1.685014 0.000000 0.000000 0.000000 0.000002 22.037384 7.501101 0.000000 -0.000000 0.000000 -4.569968 11.014880 -2.160881 0.000008 0.000001 -0.000038 -10.592859 -0.524796 -2.231843 75.144307 41.159137 -32.223692 -27.841534 0.000007 0.000554 -53.269209 103.132544 64.585237 -28.328812 0.000023 0.000029 -0.000322 -0.000045 0.000007 -2.464514 -1.574057 2.682379 -2.863373 -146.358892 65.878800 -3.215206 -1.872487 1.924605 145.045692 34.014007 41.448679 -2.654967 -1.527848 1.513045 147.235164 28.213983 -23.029764 -2.018829 -1.151991 1.108061 -0.000004 0.000000 -0.000000 -9.108372 -0.517551 2.260156 106.930334 15.069846 -20.306627 -3.700044 0.000339 0.001523 104.330177 9.438879 -12.106364 -2.850061 0.000382 -0.000230 102.346649 7.552268 -9.375695 -2.772162 -0.000015 -0.000021 0.000000 -0.000003 -0.000001 -9.532571 0.000287 0.000240 93.576399 12.629665 -13.582580 -3.700052 0.000341 0.003953 94.684781 6.789226 -7.270706 -2.950036 0.000349 -0.001813 94.004973 8.923726 -9.560091 -2.946631 -0.000001 -0.000152 0.000002 -0.000000 -0.000000 -9.103683 -0.042750 -1.864878 90.071918 15.364821 -15.339930 -3.379319 0.000311 -0.000825 92.042209 7.436726 -7.723304 -2.889750 0.000359 0.000626 94.261644 6.271703 -6.803940 -2.638798 -0.000027 0.000941 -0.000001 0.000000 -0.000002 -8.076738 -0.486375 -3.806051 82.853097 15.595716 -13.649325 -3.600031 0.000272 -0.003538 83.959411 8.654167 -7.468594 -2.100023 0.000303 -0.005509 84.604638 7.012849 -6.179381 -2.115777 -0.000027 -0.003675 -0.000004 0.000002 -0.000003 4.570446 11.014691 -2.160851 -0.000018 0.000010 -0.000021 10.592443 -0.524465 -2.232381 73.297615 -27.139222 20.360551 27.841824 0.000030 -0.000183 104.365256 -76.277121 90.662292 28.328821 -0.000028 0.000021 0.000027 -0.000090 0.000001 2.466199 -1.576119 2.681862 -5.571822 159.706748 -74.274332 3.217808 -1.871727 1.916375 162.716198 -29.628548 9.540527 2.656105 -1.528650 1.514466 141.255607 -27.190833 51.375829 2.020899 -1.154076 1.115150 -0.000001 0.000001 0.000002 9.109400 -0.517865 2.259752 90.080360 -20.805361 20.821005 3.700052 0.000162 -0.000476 85.147276 -12.390621 11.405615 2.850073 0.000186 0.000203 84.326581 -9.646210 8.737963 2.774895 -0.000031 -0.000032 0.000002 0.000000 -0.000000 9.533476 0.000195 -0.000086 87.545192 -19.341013 18.535247 3.700041 0.000192 -0.000380 89.137937 -9.813038 9.664631 2.950055 0.000185 -0.000207 90.427265 -11.534539 11.623212 2.952864 -0.000016 0.000061 0.000004 0.000001 0.000001 9.104595 -0.042858 -1.865214 84.568657 -19.095667 17.395735 3.150038 0.000212 -0.000108 93.541852 -9.629354 10.242517 2.950022 0.000208 -0.000076 96.319724 -9.913776 11.067435 2.644331 0.000016 0.000058 -0.000002 -0.000001 0.000001 8.077843 -0.486741 -3.806418 73.607105 -19.301679 14.961167 3.600004 0.000166 0.014568 77.944350 -14.614506 12.266468 2.100032 0.000170 0.007556 81.847379 -12.156245 10.968871 2.125504 -0.000015 0.007511 0.000000 0.000002 -0.000000 -8.207786 -6.751667 -1.599560 -0.077001 -0.000003 0.000080 -0.000002 -44.370110 0.345938 0.153719 -0.000000 -0.000000 0.000000 -44.423679 -3.043532 -0.076700 0.000000 -0.000002 -0.000006 -8.728667 10.710559 -0.000009 -0.000000 -0.000000 -0.000001 -0.000679 9.278123 0.000000 -0.000000 -0.000000 8.207792 -6.751710 -1.599556 -0.074518 -0.000003 0.000081 -0.000002 -44.370014 0.346960 0.148822 0.000002 0.000000 -0.000001 -44.423664 -3.044403 -0.074314 0.000000 -0.000002 -0.000004 -8.728671 10.710558 0.000007 -0.000000 -0.000000 0.000000 -0.000680 9.278137 -0.000000 0.000000 -0.000001 
